PathFileType	4	(X/Y/Z)	C:\Users\Basilio\Documents\Thesis Gigler\squatting_fais\c3dfiles\039\SLS_pre_front2\markers_experimental.trc
DataRate	CameraRate	NumFrames	NumMarkers	Units	OrigDataRate	OrigDataStartFrame	OrigNumFrames
200.000000	200.000000	4	62	mm	200.000000	788	2102
Frame#	Time	FHD			LBHD			RBHD			C7			T10			CLAV			LSHO			LUUPA			LMUPA			LDUPA			LLEP			LMEP			LRAD			LUL			LRFIN			RSHO			RUPA1			RMUPA			RDUPA			RLEP			RMEP			RRAD			RUL			RUFIN			LASI			RASI			USACR			LSACR			RSACR			LTHI1			LTHI2			LTHI3			LTHI4			LLFC			LMFC			LTIB1			LTIB2			LTIB3			LTIB4			LLMAL			LMMAL			LHEE			LMT1			LMT2			LMT5			RTHI			RTHI2			RTHI3			RTHI4			RLFC			RMFC			RTIB1			RTIB2			RTIB3			RTIB4			RLMAL			RMMAL			RHEE			RMT1			RMT2			RMT5			*61			
		X1	Y1	Z1	X2	Y2	Z2	X3	Y3	Z3	X4	Y4	Z4	X5	Y5	Z5	X6	Y6	Z6	X7	Y7	Z7	X8	Y8	Z8	X9	Y9	Z9	X10	Y10	Z10	X11	Y11	Z11	X12	Y12	Z12	X13	Y13	Z13	X14	Y14	Z14	X15	Y15	Z15	X16	Y16	Z16	X17	Y17	Z17	X18	Y18	Z18	X19	Y19	Z19	X20	Y20	Z20	X21	Y21	Z21	X22	Y22	Z22	X23	Y23	Z23	X24	Y24	Z24	X25	Y25	Z25	X26	Y26	Z26	X27	Y27	Z27	X28	Y28	Z28	X29	Y29	Z29	X30	Y30	Z30	X31	Y31	Z31	X32	Y32	Z32	X33	Y33	Z33	X34	Y34	Z34	X35	Y35	Z35	X36	Y36	Z36	X37	Y37	Z37	X38	Y38	Z38	X39	Y39	Z39	X40	Y40	Z40	X41	Y41	Z41	X42	Y42	Z42	X43	Y43	Z43	X44	Y44	Z44	X45	Y45	Z45	X46	Y46	Z46	X47	Y47	Z47	X48	Y48	Z48	X49	Y49	Z49	X50	Y50	Z50	X51	Y51	Z51	X52	Y52	Z52	X53	Y53	Z53	X54	Y54	Z54	X55	Y55	Z55	X56	Y56	Z56	X57	Y57	Z57	X58	Y58	Z58	X59	Y59	Z59	X60	Y60	Z60	X61	Y61	Z61	X62	Y62	Z62	

789	3.94	-317.4745178222657	1686.031494140625	-644.2076416015626	-475.7997131347657	1655.3427734375	-762.6068115234376	-447.4751586914064	1658.882934570313	-623.8659667968751	-519.4267578125001	1491.479125976563	-708.9828491210939	-547.7041015625001	1183.664916992188	-730.0216674804689	nan	nan	nan	-447.612030029297	1503.4951171875	-862.3555297851565	-281.1762084960938	1480.658325195313	-969.480895996094	-260.0126342773438	1513.365844726563	-937.7009277343752	-212.5298309326172	1496.503295898438	-969.058288574219	-146.507064819336	1510.723388671875	-962.9622192382815	-136.9335174560547	1439.180297851563	-933.6507568359377	125.9274673461914	1561.162109375	-866.020202636719	127.6388320922852	1571.175903320313	-941.3540649414065	203.7736511230469	1602.068359375	-855.2666015625002	-412.9396972656251	1488.803466796875	-544.1858520507814	-252.2134094238282	1430.233032226563	-444.0050048828126	-226.3842315673829	1464.993896484375	-469.7505187988282	-182.9702911376953	1431.503662109375	-444.5738830566407	-120.6560592651367	1449.2890625	-455.5953674316407	-112.1153869628907	1381.886474609375	-494.5663146972657	162.1797180175782	1510.547973632813	-547.2485351562501	165.3939056396485	1502.490356445313	-471.3537597656251	246.5482330322266	1549.899658203125	-542.7163696289064	-369.2057495117188	1041.753295898438	-861.2178344726565	-362.7350769042969	1008.098571777344	-638.8676147460939	-553.0379028320314	1038.265869140625	-743.4882202148439	-553.4926757812501	1009.883422851563	-774.7354736328127	-551.1337280273439	1002.567443847656	-716.3855590820314	-231.2165985107422	848.094909667969	-939.1340942382815	-148.2487487792969	835.025573730469	-926.8506469726565	-128.0942993164063	874.0208129882815	-908.4057617187502	-119.8770599365235	780.895446777344	-918.066345214844	-16.53696441650391	717.4359130859376	-909.6516113281252	8.165131568908693	710.9287109375001	-793.2180175781252	135.9351196289063	674.1488647460939	-874.9031372070315	135.2476196289063	603.2423706054689	-924.8288574218752	162.8908843994141	631.1144409179689	-903.4232177734377	223.8130950927735	580.6473999023439	-864.8037719726565	329.7363281250001	440.3262023925782	-903.8399047851565	332.4370117187501	441.554412841797	-816.3308105468752	324.5090942382813	348.7946777343751	-873.6643676757815	476.514617919922	520.6288452148439	-818.525329589844	476.0384521484376	522.9987182617189	-860.579772949219	470.4183959960939	480.6165466308595	-918.3404541015627	-303.4468383789063	740.6604614257814	-584.4408569335939	-244.6673889160157	708.6581420898439	-581.0799560546876	-216.412582397461	725.0210571289064	-585.0292968750001	-234.2739257812501	624.5402832031251	-593.6537475585939	-218.8495635986329	498.6590881347657	-623.8851928710939	-181.1671752929688	504.4123535156251	-734.2120361328126	-234.9293060302735	298.7197570800782	-673.5305786132814	-335.8614196777344	260.8322143554688	-673.5227050781251	-294.6979980468751	239.7219696044922	-678.3088378906251	-290.1081237792969	193.2015075683594	-717.1419067382814	-381.6632995605469	121.3560333251953	-709.8110351562501	-346.4093017578126	143.5365753173828	-790.1418457031252	-453.382781982422	107.9364166259766	-768.2036743164065	-230.7083282470704	57.87099838256837	-775.6511230468752	-234.983383178711	57.41939544677736	-729.1013793945314	-291.9922485351563	38.91527938842774	-679.5810546875001	nan	nan	nan	
790	3.945	-317.3246459960938	1684.955078125	-644.0542602539064	-475.7305603027345	1654.183959960938	-762.4107055664064	-447.3524475097657	1658.031494140625	-623.9564208984376	-519.2849121093751	1490.489379882813	-708.9799804687501	-547.1257324218751	1183.092163085938	-729.6563110351564	nan	nan	nan	-447.7252807617189	1502.49853515625	-862.609069824219	-280.8918151855469	1479.8271484375	-969.5374755859377	-259.8123779296876	1512.68896484375	-937.6101684570315	-212.333969116211	1495.643432617188	-969.0989379882815	-146.3638305664063	1509.952514648438	-962.9331665039065	-136.5117797851563	1438.087158203125	-933.8135986328127	126.2421569824219	1559.861206054688	-865.7351074218752	127.8993072509766	1570.286010742188	-941.4055786132815	203.9898223876954	1601.278930664063	-855.3001098632815	-412.719451904297	1487.74658203125	-544.3363647460939	-252.1955566406251	1429.245239257813	-444.0457763671876	-226.2838897705079	1463.682739257813	-469.7123107910157	-182.8474426269532	1430.433715820313	-444.6048278808595	-120.5072860717774	1448.125244140625	-455.501922607422	-111.9805221557617	1380.835327148438	-494.5312500000001	162.3447723388672	1509.640258789063	-547.0126342773439	165.2950897216797	1501.047973632813	-470.9693298339845	246.6844482421876	1548.833618164063	-542.4807739257814	-369.7665405273438	1040.687866210938	-861.0647583007815	-363.2211608886719	1007.199768066406	-638.8231811523439	-553.3067016601564	1037.133544921875	-743.4282836914064	-553.8383178710939	1008.982727050781	-774.734069824219	-551.4668579101564	1001.54833984375	-716.3754882812501	-231.7260894775391	846.8364257812502	-939.1099243164065	-148.5130310058594	834.2315673828127	-926.6658325195315	-128.3273620605469	873.3129882812502	-908.3592529296877	-119.9321060180664	780.1260986328127	-917.827331542969	-16.69574356079102	716.7901611328126	-909.283386230469	8.07352924346924	710.3146972656251	-792.8651123046877	135.9430847167969	673.9007568359376	-874.5469970703127	135.4235534667969	602.6328125000001	-924.6114501953127	163.0112762451172	630.6432495117189	-902.932312011719	223.9089660644532	580.5319824218751	-864.495544433594	330.0484924316407	440.0437011718751	-903.2724609375002	332.7920837402344	441.4608154296876	-815.752380371094	324.9575500488282	348.5624389648438	-872.9735107421877	476.9923706054689	520.8556518554689	-817.999938964844	476.1595153808595	523.0672607421876	-860.3450927734377	470.5898437500001	480.6194458007814	-918.055603027344	-303.0235900878907	739.8460083007814	-584.6125488281251	-244.4048309326172	708.2768554687501	-581.1428222656251	-215.999252319336	724.5037841796876	-585.2661132812501	-233.6581573486329	623.7077636718751	-593.7239990234376	-218.0854492187501	498.2738342285157	-624.1592407226564	-180.626937866211	503.9892578125001	-734.5480957031251	-234.457992553711	298.2688598632813	-673.7515258789064	-335.6027221679688	260.5901489257813	-673.7895507812501	-294.3046264648438	239.5807647705079	-678.6458129882814	-289.8803710937501	192.9687805175782	-717.3314208984376	-381.5608520507813	121.215087890625	-709.9948120117189	-346.3497009277344	143.4477081298828	-790.337097167969	-453.3637695312501	107.8607864379883	-768.296569824219	-230.7195739746094	57.83930587768556	-775.7039184570315	-235.0271759033204	57.37590408325197	-729.1980590820314	-291.9694824218751	38.9613151550293	-679.6480712890626	nan	nan	nan	
791	3.95	-317.0419311523438	1683.739868164063	-643.9693603515626	-475.4358215332032	1653.22998046875	-762.4906616210939	-447.1775512695314	1656.788940429688	-623.8298950195314	-519.0446166992189	1489.424560546875	-709.1911010742189	-547.5324096679689	1182.013671875	-729.7486572265626	nan	nan	nan	-447.1824340820314	1501.527709960938	-862.4350585937502	-280.5896301269532	1479.098999023438	-969.555603027344	-259.4945068359376	1511.70751953125	-937.7060546875002	-212.2138977050782	1494.859741210938	-969.1066894531252	-146.133773803711	1509.04736328125	-962.9455566406252	-136.438232421875	1437.338745117188	-933.9212646484377	126.4139556884766	1559.046264648438	-865.8968505859377	128.1212005615235	1569.479125976563	-941.3886718750002	204.2185211181641	1599.626098632813	-855.2702636718752	-412.357879638672	1486.640747070313	-544.6380004882814	-252.1454162597657	1427.867553710938	-443.9993286132814	-226.0829772949219	1462.748046875	-469.7287902832032	-182.7495269775391	1429.4921875	-444.4380798339845	-120.4889831542969	1446.944702148438	-455.5176696777345	-111.9671020507813	1379.526000976563	-494.4188842773439	162.8562164306641	1507.963012695313	-546.9215087890626	165.6210479736328	1500.089721679688	-470.7769165039064	246.7447662353516	1547.713623046875	-542.1043090820314	-369.9386596679688	1039.680786132813	-861.2373046875002	-363.6793823242188	1006.11865234375	-638.8670654296876	-553.5884399414064	1036.221801757813	-743.4783935546876	-554.1731567382814	1007.892944335938	-774.7583007812502	-551.4611206054689	1000.612854003906	-716.3139648437501	-232.0494995117188	845.9487915039065	-938.8743896484377	-148.77001953125	833.3266601562502	-926.4707641601565	-128.0682373046875	872.3304443359377	-908.0161132812502	-120.1733932495117	779.2720947265627	-917.559997558594	-16.8425407409668	716.1256103515626	-908.9558715820315	7.993555068969728	709.9072265625001	-792.6275024414065	136.0089263916016	673.4760131835939	-874.2093505859377	135.4855346679688	602.3107910156251	-924.148864746094	162.9903717041016	630.2498779296876	-902.5425415039065	224.0570373535157	580.3162231445314	-864.0452880859377	330.2805786132813	439.7708740234376	-902.663024902344	333.1946411132813	441.4395446777345	-815.1531372070315	325.2273559570313	348.4084777832032	-872.2578125000002	477.2152709960939	520.9318237304689	-817.795349121094	476.3774414062501	523.2855224609376	-860.003112792969	470.768768310547	480.622772216797	-917.7300415039065	-302.7300415039063	739.0453491210939	-584.7352294921876	-243.7918853759766	707.3372802734376	-581.3577270507814	-215.6372070312501	723.9336547851564	-585.3579711914064	-233.2806396484376	623.0646972656251	-593.8985595703126	-217.2709503173829	497.7622680664064	-624.6202392578126	-180.1739196777344	503.6068115234376	-734.9337768554689	-234.1304626464844	298.0309448242188	-674.0562133789064	-335.2749328613282	260.4310913085938	-674.0621337890626	-293.7921447753907	238.9233093261719	-679.4598999023439	-289.7398071289063	192.8034362792969	-717.8204345703126	-381.5018615722657	121.1964263916016	-710.1406860351564	-346.4568176269532	143.3197784423828	-790.627624511719	-453.3643798828126	107.7913513183594	-768.3438720703127	-230.7344055175782	57.7445526123047	-775.7435302734377	-235.0123748779297	57.37192535400392	-729.2556152343751	-291.9830932617188	38.98481369018555	-679.6693725585939	nan	nan	nan	
792	3.955	-317.0321350097657	1682.804077148438	-643.9128417968751	-475.2477416992189	1652.114624023438	-762.3982543945314	-446.8643798828126	1655.8203125	-623.9428100585939	-518.8394775390626	1488.60107421875	-709.3369140625001	-547.6757812500001	1181.084716796875	-729.7659301757814	nan	nan	nan	-446.8848571777345	1500.516235351563	-862.457458496094	-280.1665039062501	1478.46435546875	-969.7166137695315	-259.3299255371094	1510.854858398438	-937.7037353515627	-212.0134582519532	1494.139038085938	-969.0672607421877	-145.8887634277344	1508.110229492188	-962.9791259765627	-136.2754669189453	1436.56884765625	-933.872253417969	126.7791824340821	1558.011596679688	-865.9548950195315	128.34228515625	1568.610107421875	-941.403747558594	204.2640075683594	1599.147705078125	-855.2592773437502	-412.3928833007814	1485.686767578125	-544.3756713867189	-252.0327301025391	1426.956787109375	-444.0291748046876	-226.397933959961	1461.23291015625	-469.7452392578126	-182.6961975097657	1428.237182617188	-444.5344238281251	-120.3770446777344	1445.846801757813	-455.3567504882814	-111.8154602050782	1378.547241210938	-494.3221435546876	163.0588531494141	1506.973876953125	-546.6564331054689	165.5068511962891	1498.735107421875	-470.4296264648439	246.8645172119141	1546.469360351563	-541.8300781250001	-369.9894104003907	1038.576782226563	-861.289733886719	-363.8982238769532	1005.223022460938	-638.7994995117189	-553.9291992187501	1035.290283203125	-743.3842163085939	-554.4617309570314	1006.867797851563	-774.6741943359377	-551.8226318359376	999.5066528320315	-716.2007446289064	-231.9891662597657	845.342224121094	-938.6152343750002	-148.8644714355469	832.4885253906252	-926.3056640625002	-128.2288513183594	871.5887451171877	-907.9883422851565	-120.3510208129883	778.5020141601565	-917.300476074219	-16.76985168457032	715.5326538085939	-908.642517089844	8.040709495544435	709.5471191406251	-792.3883056640627	135.9570922851563	672.9714965820314	-873.6660156250002	135.3471832275391	601.2503051757814	-923.712097167969	163.2009429931641	629.9623413085939	-902.240417480469	224.0803680419922	580.1273193359376	-863.5626220703127	330.5120849609376	439.5287170410157	-902.1016845703127	333.5693054199219	441.3670959472657	-814.606140136719	325.5866088867188	348.2590942382813	-871.4148559570315	477.3784484863282	520.9845581054689	-817.3879394531252	476.3898315429689	523.4301757812501	-859.6003417968752	471.0175170898439	480.5597534179689	-917.2839355468752	-302.3147583007813	738.3283691406251	-584.8537597656251	-243.0546417236329	706.6435546875001	-581.8287963867189	-215.2091064453126	723.3702392578126	-585.6661987304689	-232.523178100586	622.6424560546876	-594.2303466796876	-216.4525146484376	497.3420410156251	-624.9272460937501	-179.8188781738282	503.2716064453126	-735.4923706054689	-233.6415405273438	297.6237792968751	-674.6394042968751	-334.9353027343751	260.2518615722657	-674.3436889648439	-293.4302368164063	238.8574676513672	-679.8963012695314	-289.5272521972657	192.5060119628907	-718.3118896484376	-381.4416809082032	121.0841217041016	-710.3444824218751	-346.4202575683594	143.1589660644532	-790.911804199219	-453.3145446777345	107.6831893920899	-768.4939575195315	-230.8050842285157	57.65924453735353	-775.851745605469	-235.021469116211	57.34114837646486	-729.3366699218751	-291.9089050292969	39.05330657958985	-679.7164916992189	nan	nan	nan	
